<svg xmlns="http://www.w3.org/2000/svg" xmlns:xlink="http://www.w3.org/1999/xlink" id="Camada_1" data-name="Camada 1" viewBox="0 0 473.35 477.11"><defs><style>.cls-1{fill:none;}.cls-2{clip-path:url(#clip-path);}.cls-3{fill:#b563ff;}.cls-4{clip-path:url(#clip-path-2);}.cls-5{clip-path:url(#clip-path-3);}.cls-6{clip-path:url(#clip-path-4);}.cls-7{clip-path:url(#clip-path-5);}</style><clipPath id="clip-path"><path class="cls-1" d="M209.59,203.18v143.5a27.28,27.28,0,1,0,54.56,0V203.18a27.28,27.28,0,1,0-54.56,0"></path></clipPath><clipPath id="clip-path-2"><path class="cls-1" d="M364.36,152.08v40.86a27.28,27.28,0,1,0,54.55,0h0V152.08a27.28,27.28,0,1,0-54.55,0"></path></clipPath><clipPath id="clip-path-3"><path class="cls-1" d="M54.43,152.08v40.86a27.28,27.28,0,0,0,54.56,0h0V152.08a27.28,27.28,0,1,0-54.56,0"></path></clipPath><clipPath id="clip-path-4"><path class="cls-1" d="M287,130.43v143.5a27.29,27.29,0,0,0,54.57,0V130.43a27.29,27.29,0,0,0-54.57,0"></path></clipPath><clipPath id="clip-path-5"><path class="cls-1" d="M131.81,130.43v143.5a27.29,27.29,0,0,0,54.57,0V130.43a27.29,27.29,0,0,0-54.57,0"></path></clipPath></defs><g id="Grupo_3044" data-name="Grupo 3044"><g id="Grupo_827" data-name="Grupo 827"><g class="cls-2"><g id="Grupo_826" data-name="Grupo 826"><rect id="Ret&#xE2;ngulo_560" data-name="Ret&#xE2;ngulo 560" class="cls-3" x="137.64" y="246.91" width="198.46" height="56.04" transform="translate(-39.82 509.74) rotate(-89.57)"></rect></g></g></g><g id="Grupo_829" data-name="Grupo 829"><g class="cls-4"><g id="Grupo_828" data-name="Grupo 828"><rect id="Ret&#xE2;ngulo_561" data-name="Ret&#xE2;ngulo 561" class="cls-3" x="343.73" y="144.88" width="95.82" height="55.27" transform="translate(216.21 562.85) rotate(-89.57)"></rect></g></g></g><g id="Grupo_831" data-name="Grupo 831"><g class="cls-5"><g id="Grupo_830" data-name="Grupo 830"><rect id="Ret&#xE2;ngulo_562" data-name="Ret&#xE2;ngulo 562" class="cls-3" x="33.78" y="144.86" width="95.82" height="55.27" transform="translate(-91.37 252.98) rotate(-89.6)"></rect></g></g></g><g id="Grupo_833" data-name="Grupo 833"><g class="cls-6"><g id="Grupo_832" data-name="Grupo 832"><rect id="Ret&#xE2;ngulo_563" data-name="Ret&#xE2;ngulo 563" class="cls-3" x="215.02" y="174.16" width="198.46" height="56.04" transform="translate(109.73 514.92) rotate(-89.57)"></rect></g></g></g><g id="Grupo_2993" data-name="Grupo 2993"><g class="cls-7"><g id="Grupo_832-2" data-name="Grupo 832-2"><rect id="Ret&#xE2;ngulo_563-2" data-name="Ret&#xE2;ngulo 563-2" class="cls-3" x="59.86" y="174.16" width="198.46" height="56.04" transform="translate(-44.27 359.76) rotate(-89.57)"></rect></g></g></g></g></svg>